<?xml version="1.0" encoding="UTF-8"?>
<svg
  version="1.1"
  xmlns="http://www.w3.org/2000/svg"
  xmlns:xlink="http://www.w3.org/1999/xlink"
  viewBox="0 0 14 14"
>
  <path
    d="M12.252 7.9209C13.7217 7.9209 14.7266 6.93652 14.7266 5.50781C14.7266 4.0791 13.7217 3.10156 12.252 3.10156C10.8232 3.10156 9.8457 4.0791 9.8457 5.50781C9.8457 6.93652 10.8301 7.9209 12.252 7.9209ZM2.00488 13.1367C2.45605 13.1367 2.72949 12.8496 2.72949 12.3848V5.83594L7.35059 12.5967C7.6377 12.9932 7.86328 13.1367 8.20508 13.1367C8.69043 13.1367 8.96387 12.8359 8.96387 12.3232V3.8877C8.96387 3.42285 8.69043 3.12891 8.23242 3.12891C7.78809 3.12891 7.50781 3.41602 7.50781 3.8877V10.4229L2.89355 3.66895C2.60645 3.25879 2.40137 3.12891 2.03906 3.12891C1.56738 3.12891 1.27344 3.4502 1.27344 3.94238V12.3848C1.27344 12.8496 1.55371 13.1367 2.00488 13.1367ZM12.252 6.84766C11.5615 6.84766 11.0898 6.30762 11.0898 5.50781C11.0898 4.70801 11.5615 4.16797 12.252 4.16797C12.9902 4.16797 13.4756 4.70801 13.4756 5.50781C13.4756 6.30762 12.9834 6.84766 12.252 6.84766ZM10.625 9.77344H13.9541C14.3506 9.77344 14.624 9.54102 14.624 9.14453C14.624 8.74805 14.3506 8.50195 13.9541 8.50195H10.625C10.2285 8.50195 9.96191 8.74805 9.96191 9.14453C9.96191 9.54102 10.2285 9.77344 10.625 9.77344 Z"
  ></path>
</svg>
